<?xml version="1.0" standalone="no"?>
<!DOCTYPE svg PUBLIC "-//W3C//DTD SVG 20010904//EN"
 "http://www.w3.org/TR/2001/REC-SVG-20010904/DTD/svg10.dtd">
<svg version="1.0" xmlns="http://www.w3.org/2000/svg"
 width="260.000000pt" height="260.000000pt" viewBox="0 0 260.000000 260.000000"
 preserveAspectRatio="xMidYMid meet">
<metadata>
Created by potrace 1.11, written by Peter Selinger 2001-2013
</metadata>
<g transform="translate(0.000000,260.000000) scale(0.100000,-0.100000)"
fill="#000000" stroke="none">
<path d="M889 2408 c-178 -46 -345 -181 -427 -344 -19 -38 -63 -176 -60 -193
5 -44 -3 -59 -39 -65 -120 -21 -204 -79 -258 -178 -26 -47 -30 -63 -30 -138 0
-73 4 -93 28 -142 34 -70 91 -130 146 -154 23 -10 41 -20 41 -23 0 -3 -33 -6
-72 -6 -64 0 -73 -2 -70 -17 1 -10 81 -210 176 -445 l174 -428 44 -5 c23 -3
66 -4 93 -2 l50 4 38 96 c36 89 57 139 90 215 12 28 15 24 81 -138 38 -91 73
-168 78 -172 15 -8 170 -6 178 4 4 4 24 51 44 103 21 52 44 109 51 125 7 17
32 77 55 135 23 58 52 130 65 160 13 30 51 123 85 206 l61 152 37 -2 37 -1 3
-442 2 -441 43 -4 c23 -1 71 -1 106 2 l64 5 1 180 1 180 180 0 180 0 0 -183 0
-182 32 -1 c18 0 66 0 106 -1 l72 0 3 451 2 452 -55 -2 c-30 -1 -58 1 -62 4
-3 4 2 7 13 7 29 0 117 54 159 98 93 98 127 220 98 346 -40 176 -184 296 -371
310 -29 2 -35 8 -61 62 -16 33 -43 77 -61 98 -90 102 -253 139 -389 87 l-51
-19 -48 50 c-170 182 -426 257 -663 196z m331 -113 c98 -30 171 -76 255 -161
44 -44 91 -84 104 -87 14 -3 49 4 85 17 81 30 162 33 219 8 59 -26 93 -64 132
-147 18 -39 39 -76 48 -83 8 -7 41 -15 74 -18 83 -8 122 -19 175 -53 77 -49
120 -130 120 -227 0 -108 -62 -203 -167 -254 l-50 -25 -928 -1 -928 -1 -47 22
c-54 25 -71 43 -103 104 -71 138 22 286 196 310 93 13 110 32 118 134 14 168
96 298 252 404 37 25 139 64 185 70 19 3 37 7 39 8 9 10 173 -6 221 -20z
m-672 -1170 c8 -16 41 -106 74 -198 45 -128 59 -176 54 -200 -7 -33 -65 -187
-76 -200 -3 -4 -29 59 -57 140 -28 82 -78 225 -111 319 l-60 171 82 -1 c80 -1
81 -1 94 -31z m362 26 c0 -7 -81 -256 -85 -259 -3 -3 -85 249 -85 260 0 2 38
4 85 4 47 0 85 -2 85 -5z m360 -8 c0 -6 -5 -24 -11 -40 -16 -42 -140 -396
-144 -413 -12 -46 -60 -169 -64 -164 -4 3 -25 54 -47 112 l-42 107 38 105 c21
58 54 150 75 206 l38 100 78 0 c55 0 79 -4 79 -13z m895 -152 l0 -166 -181 -3
-181 -2 0 162 c0 90 1 165 2 168 2 3 84 5 182 6 l178 0 0 -165z"/>
</g>
</svg>
